<?xml version="1.0" standalone="no"?>
<!DOCTYPE svg PUBLIC "-//W3C//DTD SVG 20010904//EN"
 "http://www.w3.org/TR/2001/REC-SVG-20010904/DTD/svg10.dtd">
<svg version="1.0" xmlns="http://www.w3.org/2000/svg"
 width="150.000000pt" height="112.000000pt" viewBox="0 0 150.000000 112.000000"
 preserveAspectRatio="xMidYMid meet">

<g transform="translate(0.000000,112.000000) scale(0.100000,-0.100000)"
fill="#000000" stroke="none">
<path d="M664 766 c-38 -17 -47 -30 -39 -56 9 -28 39 -33 82 -13 40 19 52 45
33 68 -15 18 -36 18 -76 1z"/>
<path d="M860 701 c-8 -17 -6 -29 12 -61 26 -45 41 -54 69 -40 25 14 24 40 -4
81 -27 41 -61 49 -77 20z"/>
<path d="M549 658 c-21 -39 -28 -101 -18 -150 23 -106 127 -185 233 -176 101
8 191 86 203 176 5 34 2 42 -16 51 -29 16 -38 8 -65 -53 -20 -44 -31 -57 -70
-76 -82 -39 -171 -6 -202 76 -15 39 -15 51 -4 98 7 30 10 59 6 65 -12 20 -55
12 -67 -11z"/>
</g>
</svg>
